<svg id="Flickr" xmlns="http://www.w3.org/2000/svg" width="31.375" height="31.37" viewBox="0 0 31.375 31.37">
  <defs>
    <style>
      .cls-1 {
        fill: #30318b;
      }

      .cls-1, .cls-2, .cls-3, .cls-4 {
        fill-rule: evenodd;
      }

      .cls-2 {
        fill: #ffca24;
      }

      .cls-3 {
        fill: #ff0084;
      }

      .cls-4 {
        fill: #0063dc;
      }
    </style>
  </defs>
  <path id="base" class="cls-1" d="M968.433,1334.46a15.7,15.7,0,1,1-15.7,15.69A15.691,15.691,0,0,1,968.433,1334.46Z" transform="translate(-952.75 -1334.47)"/>
  <path id="flickr-2" data-name="flickr" class="cls-2" d="M972.135,1347.42a3.045,3.045,0,1,1-3.044,3.04A3.042,3.042,0,0,1,972.135,1347.42Zm-7.37,0a3.045,3.045,0,1,1-3.044,3.04A3.042,3.042,0,0,1,964.765,1347.42Z" transform="translate(-952.75 -1334.47)"/>
  <path id="flickr-3" data-name="flickr" class="cls-3" d="M969.39,1346.87H978.2v7.5H969.39v-7.5Z" transform="translate(-952.75 -1334.47)"/>
  <path id="flickr-4" data-name="flickr" class="cls-4" d="M959.605,1346.87h8.806v7.5h-8.806v-7.5Z" transform="translate(-952.75 -1334.47)"/>
</svg>
