<svg xmlns="http://www.w3.org/2000/svg" width="21.219" height="21.22" viewBox="0 0 21.219 21.22">
  <defs>
    <style>
      .cls-1 {
        fill: #30318b;
        fill-rule: evenodd;
      }
    </style>
  </defs>
  <path id="home" class="cls-1" d="M581.858,1303.79a1.2,1.2,0,0,1-1.665,0l-0.255-.24v9.31A1.138,1.138,0,0,1,578.8,1314H564.4a1.138,1.138,0,0,1-1.137-1.14v-9.34l-0.28.27a1.2,1.2,0,0,1-1.665,0,1.1,1.1,0,0,1,0-1.6l9.436-9.09a1.2,1.2,0,0,1,1.665,0l2.969,2.86v-2.04a1.137,1.137,0,1,1,2.273,0v4.23l4.194,4.04A1.1,1.1,0,0,1,581.858,1303.79Zm-10.268-8.29-6.078,5.86a1.151,1.151,0,0,1,.027.14v10.23h12.125V1301.5a0.847,0.847,0,0,1,.024-0.12Z" transform="translate(-561 -1292.78)"/>
</svg>
