<svg id="Paypal" xmlns="http://www.w3.org/2000/svg" width="31.375" height="31.41" viewBox="0 0 31.375 31.41">
  <defs>
    <style>
      .cls-1 {
        fill: #30318b;
      }

      .cls-1, .cls-2 {
        fill-rule: evenodd;
      }

      .cls-2 {
        fill: #ffca24;
      }
    </style>
  </defs>
  <path id="base" class="cls-1" d="M898.033,1374.75a15.7,15.7,0,1,1-15.7,15.7A15.7,15.7,0,0,1,898.033,1374.75Z" transform="translate(-882.344 -1374.75)"/>
  <path id="paypal-2" data-name="paypal" class="cls-2" d="M902.286,1391.76a7.068,7.068,0,0,1-4.24,1.12h-0.425a0.762,0.762,0,0,0-.711.56l-0.51,2.22a0.772,0.772,0,0,1-.711.57H894.2a0.446,0.446,0,0,1-.45-0.57l2.1-9.13a0.774,0.774,0,0,1,.712-0.57h3.1a9.924,9.924,0,0,1,1.751.14,3.61,3.61,0,0,1,1.291.48,2.209,2.209,0,0,1,.817.87,2.872,2.872,0,0,1,.283,1.35A3.519,3.519,0,0,1,902.286,1391.76Zm-3.61-.84a2.975,2.975,0,0,0,1.635-.48,1.649,1.649,0,0,0,.672-1.41,1.225,1.225,0,0,0-.434-0.88,2.275,2.275,0,0,0-1.288-.29h-0.487a0.765,0.765,0,0,0-.711.56l-0.447,1.94a0.447,0.447,0,0,0,.451.57Z" transform="translate(-882.344 -1374.75)"/>
</svg>
