<svg id="Twitter" xmlns="http://www.w3.org/2000/svg" width="31.407" height="31.4" viewBox="0 0 31.407 31.4">
  <defs>
    <style>
      .cls-1 {
        fill: #30318b;
      }

      .cls-2 {
        fill: #ffca24;
        fill-rule: evenodd;
      }
    </style>
  </defs>
  <circle id="base" class="cls-1" cx="15.704" cy="15.7" r="15.704"/>
  <path id="twitter-2" data-name="twitter" class="cls-2" d="M960.771,1313.03s2.658,2.31,4.771.02a1.069,1.069,0,0,1-.58-0.18,1.02,1.02,0,0,1-.289-0.49s0.657-.37.411-0.65c0,0-1.454-.02-1.536-0.9l0.855-.55a0.815,0.815,0,0,1-.668-0.01,1.5,1.5,0,0,1-.7-1.25l0.72-.07s-1.249-.89-0.9-1.57c0,0,.12-0.59,4.253,2.16,0,0,.729-2.6,2.075-3.17a0.42,0.42,0,0,1,.224.22,0.817,0.817,0,0,1,.442-0.44s0.3,0.26.107,0.42a0.927,0.927,0,0,1,.762-0.18,1.145,1.145,0,0,1-.757.7s1.911,0.11,2.577,2.66a1.981,1.981,0,0,0,1.606-.21s0.065,0.38-1.143.91a1.418,1.418,0,0,0,1.125.05s-0.008.75-1.609,0.74c0,0-1.352,3.92-4.639,4.46C963.885,1316.36,961.079,1314.36,960.771,1313.03Z" transform="translate(-951.531 -1295.16)"/>
</svg>
